<?xml version="1.0" standalone="no"?>
<!DOCTYPE svg PUBLIC "-//W3C//DTD SVG 20010904//EN"
 "http://www.w3.org/TR/2001/REC-SVG-20010904/DTD/svg10.dtd">
<svg version="1.0" xmlns="http://www.w3.org/2000/svg"
 width="150.000000pt" height="150.000000pt" viewBox="0 0 150.000000 150.000000"
 preserveAspectRatio="xMidYMid meet">

<g transform="translate(0.000000,150.000000) scale(0.100000,-0.100000)"
fill="#000000" stroke="none">
<path d="M548 1372 c-10 -2 -18 -8 -18 -13 0 -11 54 -145 113 -279 37 -84 58
-149 63 -197 6 -49 5 -52 -22 -66 -39 -20 -313 -34 -343 -18 -12 7 -44 43 -71
80 -53 73 -64 81 -111 81 -35 0 -36 -7 -9 -114 15 -57 17 -82 9 -92 -7 -9 -7
-19 1 -35 13 -22 12 -23 -25 -144 -15 -51 -10 -65 24 -65 36 0 67 25 131 105
l52 65 112 0 c115 0 220 -14 244 -33 15 -12 9 -99 -10 -146 -15 -37 -38 -93
-48 -116 -4 -11 -20 -46 -34 -78 -14 -32 -26 -61 -26 -65 0 -5 -9 -27 -20 -50
-11 -23 -21 -52 -23 -64 -2 -20 3 -23 37 -26 44 -4 65 12 123 91 33 44 37 47
81 47 78 1 109 46 47 70 -14 5 -25 13 -25 17 0 5 16 29 35 55 34 46 38 48 83
48 72 0 100 41 42 61 -16 6 -30 13 -30 16 0 3 23 35 52 72 29 36 54 68 56 71
2 3 38 8 80 12 232 21 272 32 272 74 0 37 -52 54 -212 69 -76 6 -140 14 -141
16 -51 62 -105 144 -101 150 3 5 13 9 24 9 16 0 30 18 30 40 0 12 -58 30 -95
30 -26 0 -37 8 -63 44 -18 24 -32 49 -32 54 0 5 14 12 30 16 21 4 30 11 30 25
0 27 -29 41 -82 41 -43 0 -46 2 -94 65 -31 41 -58 68 -74 71 -14 3 -29 7 -35
8 -5 1 -18 1 -27 -2z"/>
</g>
</svg>
